<?xml version="1.0"?>
<svg xmlns="http://www.w3.org/2000/svg" id="Layer_3" enable-background="new 0 0 64 64" height="512px" viewBox="0 0 64 64" width="512px"><g><path d="m63 25c0-1.858-1.28-3.411-3-3.858v-4.142c0-2.453-1.78-4.49-4.114-4.91-.415-1.767-1.995-3.09-3.886-3.09-2.206 0-4 1.794-4 4v7h-3v-1c0-1.654-1.346-3-3-3-.395 0-.77.081-1.116.22-.345-1.275-1.501-2.22-2.884-2.22-.395 0-.77.081-1.116.22-.345-1.275-1.501-2.22-2.884-2.22-.771 0-1.468.301-2 .78-.532-.48-1.229-.78-2-.78-1.654 0-3 1.346-3 3v1h-.879c-1.635 0-3.172.637-4.328 1.793-.635.635-1.107 1.388-1.41 2.207h-4.383v-7c0-2.206-1.794-4-4-4-1.891 0-3.471 1.323-3.886 3.09-2.334.42-4.114 2.457-4.114 4.91v4.142c-1.72.447-3 2-3 3.858s1.28 3.411 3 3.858v4.142c0 2.453 1.78 4.49 4.114 4.91.415 1.767 1.995 3.09 3.886 3.09 2.206 0 4-1.794 4-4v-7h4v2.948c0 .905.311 1.792.876 2.499l3.124 3.904v23.649h18v-23.764l1.577-3.155c.277-.553.423-1.171.423-1.789v-4.292h4v7c0 2.206 1.794 4 4 4 1.891 0 3.471-1.323 3.886-3.09 2.334-.42 4.114-2.457 4.114-4.91v-4.142c1.72-.447 3-2 3-3.858zm-60 0c0-.737.405-1.375 1-1.722v3.444c-.595-.347-1-.985-1-1.722zm3 8v-16c0-1.302.839-2.402 2-2.816v21.631c-1.161-.413-2-1.513-2-2.815zm8 4c0 1.103-.897 2-2 2s-2-.897-2-2v-24c0-1.103.897-2 2-2s2 .897 2 2zm2-9v-6h4.006c-.001.041-.006.08-.006.121v5.879zm26-10c.551 0 1 .449 1 1v8c0 .551-.449 1-1 1s-1-.449-1-1v-8c0-.551.449-1 1-1zm-4-2c.551 0 1 .449 1 1v2 8c0 .551-.449 1-1 1s-1-.449-1-1v-10c0-.551.449-1 1-1zm-4-2c.551 0 1 .449 1 1v2 10c0 .551-.449 1-1 1s-1-.449-1-1v-5.78c.609-.549 1-1.337 1-2.22s-.391-1.67-1-2.22v-1.78c0-.551.449-1 1-1zm-3.502 13.848c-.575-2.151-1.633-4.146-3.128-5.848h3.63v5c0 .366-.208.673-.502.848zm-1.498-12.848c0-.551.449-1 1-1s1 .449 1 1v1h-2zm-3 31h3.026c-.635.838-1.026 1.87-1.026 3s.391 2.162 1.026 3h-3.026zm4 3c0-1.654 1.346-3 3-3h3 4v6h-4-3c-1.654 0-3-1.346-3-3zm-4 12v-7h7 3 4v7zm16-26.708c0 .309-.073.618-.211.894l-1.789 3.578v5.236h-4-3-7v-5.351l-3.562-4.452c-.282-.353-.438-.797-.438-1.249v-10.827c0-1.101.429-2.136 1.207-2.914s1.814-1.207 2.914-1.207h4.879c.551 0 1 .449 1 1s-.449 1-1 1h-6v2.414l.293.293c2.391 2.391 3.707 5.569 3.707 8.95v1.343h2v-1.343c0-.609-.05-1.208-.123-1.803.422-.13.803-.346 1.123-.634.532.48 1.229.78 2 .78s1.468-.301 2-.78c.532.48 1.229.78 2 .78s1.468-.301 2-.78c.532.48 1.229.78 2 .78zm2.816-6.292c.112-.314.184-.648.184-1v-5h3v6zm9.184 9c0 1.103-.897 2-2 2s-2-.897-2-2v-24c0-1.103.897-2 2-2s2 .897 2 2zm4-4c0 1.302-.839 2.402-2 2.816v-21.632c1.161.414 2 1.514 2 2.816zm2-6.278v-3.444c.595.347 1 .985 1 1.722s-.405 1.375-1 1.722z" data-original="#000000" class="active-path" data-old_color="#000000" fill="#C12020"/></g> </svg>
