<?xml version="1.0" encoding="utf-8"?>
<!-- Generator: Adobe Illustrator 19.0.0, SVG Export Plug-In . SVG Version: 6.00 Build 0)  -->
<svg version="1.1" id="Layer_1" xmlns="http://www.w3.org/2000/svg" xmlns:xlink="http://www.w3.org/1999/xlink" x="0px" y="0px"
	 viewBox="-447 241 64 64.3" style="enable-background:new -447 241 64 64.3;" xml:space="preserve">
<style type="text/css">
	.st0{fill:#CF3721;}
</style>
<g>
	<polygon class="st0" points="-437.2,288.8 -438.5,290.1 -439.8,288.8 -441.2,290.2 -439.9,291.5 -441.2,292.8 -439.8,294.2 
		-438.5,292.9 -437.2,294.2 -435.8,292.8 -437.1,291.5 -435.8,290.2 	"/>
	<path class="st0" d="M-427.1,290.5h-3c-0.1-0.3-0.3-0.5-0.4-0.8l-1.2-1.8l-1.7,1.1l1.2,1.8c0.4,0.7,0.7,1.4,0.7,2.2
		c0,0.8-0.2,1.7-0.6,2.4l-1.3,2.7l1.8,0.9l0.9-1.8c1.4,0.9,3,1.3,4.7,1.3c1.3,0,2.5-0.7,3.1-1.9c0.3-0.6,0.4-1.2,0.4-1.8
		c0-1.1-0.4-2.1-1.2-2.9C-424.6,291-425.8,290.5-427.1,290.5z M-424.7,295.7c-0.2,0.5-0.7,0.8-1.3,0.8c-1.4,0-2.7-0.4-3.9-1.1
		c0.3-0.8,0.4-1.6,0.4-2.4c0-0.2,0-0.3,0-0.5h2.5c0.7,0,1.4,0.3,1.9,0.8c0.4,0.4,0.6,0.9,0.6,1.5
		C-424.5,295.1-424.6,295.4-424.7,295.7z"/>
	<path class="st0" d="M-387.4,294.5l3.7-9.8l-4.1,1.7c0.9-1.8,1.3-3.8,1.3-5.9c0-3.7-1.5-7.3-4.1-9.9c2-3,3.1-6.4,3.1-10.1h-2
		c0,2.8-0.7,5.4-2,7.8c-0.2-2.8-2.1-5.2-4.7-6.1l-3.2-1.1v3.7c0,0.6,0.1,1.2,0.2,1.8c-0.4,0-0.8-0.1-1.2-0.1c-3.7,0-7,1.4-9.5,3.8
		l0.4-3c4.7-0.8,8.1-3.5,8.1-6.8c0-1.8-1.1-3.5-2.9-4.8c0.6-1.3,0.9-2.8,0.9-4.2c0-5.5-4.5-10-10-10c-3.2,0-6.3,1.6-8.1,4.2
		c-1.1-0.8-2.5-1.2-3.9-1.2c-3.9,0-7,3.1-7,7c0,1.1,0.2,2.1,0.7,3c-1,0.9-1.8,2.1-2.2,3.4c-0.1,0-0.2,0-0.3-0.1l0.6-2.9
		c0.2-0.9,0.3-1.7,0.3-2.6c0-0.7-0.2-1.3-0.5-1.9c-0.6-1.1-1.7-1.8-3-1.8c-0.5,0-1,0.1-1.5,0.4l-0.1,0.1c-0.5-0.9-1.5-1.4-2.5-1.4
		c-1.3,0-2.4,0.8-2.8,2c-0.3,1-0.4,2.1-0.1,3.1c-1.4,0.3-2.5,1.6-2.5,3.1c0,0.7,0.3,1.4,0.7,2l3,3.8c-0.5,1-0.8,2-0.8,3.2
		c0,0.6,0.1,1.2,0.2,1.7l4.6,18.8c-2.1,0.6-4.1,1.7-5.8,3.1c-1.3,1.1-2,2.6-2,4.2c0,1.5,0.6,2.9,1.6,3.9c3.8,3.8,9,6,14.4,6
		c6,0,11.9-0.6,17.7-1.8l0.8,0.8c1.3,1.3,3,2,4.8,2c2.6,0,4.9-1.4,6.1-3.7l1.2-2.3l16.1,6.9L-387.4,294.5z M-389.6,294.5l2.3,6.2
		l-10-4.3l5.7-1.7l-5.2-2.2l9.5-4.1L-389.6,294.5z M-397.5,263.9l0.6,0.2c2,0.7,3.4,2.6,3.4,4.7v1.1l-1.2-0.6
		c-1.7-0.9-2.8-2.6-2.8-4.5V263.9z M-400.5,268.5c0.7,0,1.5,0.1,2.2,0.2c0.7,1,1.6,1.8,2.7,2.3l1.4,0.7l-1,1l1.4,1.4l1.1-1
		c0.3-0.3,0.6-0.6,0.9-1c2.1,2.2,3.4,5.2,3.4,8.3c0,2.6-0.8,5.1-2.4,7.2l-8.4,3.6c-1-0.4-1.9-0.8-2.9-1.2c-1.9-2.4-4.2-4.4-6.8-5.8
		c-1-0.6-2.1-1-3.2-1.4c-0.2-0.8-0.3-1.6-0.3-2.4C-412.5,273.9-407.1,268.5-400.5,268.5z M-424.8,284.9l-3.6-16.6
		c0.6,0.1,1.2,0.2,1.9,0.2c0.1,0,0.1,0,0.2,0l2.6,16.5C-424.1,285-424.5,285-424.8,284.9z M-421.7,285.3l-2.7-17.1
		c1.1-0.3,2.1-0.8,3-1.6l0.8,14.9h-0.9v3.8C-421.6,285.3-421.6,285.3-421.7,285.3z M-418.6,281.6l-0.9-15.6c0.9,0.4,1.8,0.8,2.9,1.1
		l-0.9,14.6C-417.8,281.6-418.2,281.6-418.6,281.6z M-419.5,283.5c0.7,0,1.3,0.1,2,0.2v2.3c-0.7-0.1-1.3-0.2-2-0.4V283.5z
		 M-415.5,284c0.7,0.2,1.4,0.3,2,0.6v2.2c-0.7-0.2-1.4-0.3-2-0.5V284z M-411.5,285.4c0.5,0.2,1,0.5,1.5,0.7c1.3,0.7,2.6,1.6,3.7,2.7
		c-1.7-0.6-3.4-1.1-5.2-1.5V285.4z M-412.5,273.3c-1.3,2.1-2,4.6-2,7.2c0,0.6,0,1.2,0.1,1.7c-0.4-0.1-0.7-0.2-1.1-0.2l0.9-14.6
		c0.7,0.1,1.4,0.1,2.1,0.1c0.3,0,0.6,0,0.9,0L-412.5,273.3z M-430,255.6l0.8-0.6l-0.5-0.8c-0.5-0.8-0.8-1.8-0.8-2.7c0-2.8,2.2-5,5-5
		c1.3,0,2.5,0.5,3.4,1.4l0.9,0.9l0.6-1.1c1.4-2.5,4.1-4.1,7-4.1c4.4,0,8,3.6,8,8c0,1.4-0.4,2.8-1.1,4.1l-0.5,0.9l0.9,0.5
		c1.7,0.9,2.7,2.2,2.7,3.5c0,2.7-4.1,5-9,5c-2.9,0-5.7-0.8-7.4-2.2l-0.9-0.7l-0.6,1c-1.1,1.8-3,2.9-5.1,2.9c-0.8,0-1.6-0.2-2.4-0.5
		l-0.7-3.1c-0.4-1.7-1.4-3.2-2.7-4.1C-431.9,257.5-431.1,256.4-430,255.6z M-435.7,251.2c0.2,0.3,0.2,0.7,0.2,1
		c0,0.7-0.1,1.5-0.2,2.2l-0.6,3c-0.1,0-0.3,0-0.4,0l-1.3-6.6l0.5-0.2C-436.9,250.3-436.1,250.6-435.7,251.2z M-442,250.1
		c0.1-0.4,0.5-0.6,0.9-0.6c0.5,0,0.8,0.3,0.9,0.8l1.5,7.7c-0.1,0.1-0.3,0.1-0.4,0.2l-2.7-5.4C-442.2,251.9-442.3,251-442,250.1z
		 M-444.2,256.5c-0.2-0.2-0.3-0.5-0.3-0.8c0-0.7,0.5-1.2,1.2-1.2h0.2l2.3,4.6c-0.3,0.2-0.5,0.5-0.8,0.7L-444.2,256.5z M-441.3,266
		c-0.1-0.4-0.2-0.8-0.2-1.3c0-2.9,2.3-5.2,5.2-5.2c2.3,0,4.3,1.6,4.8,3.9l4.6,21.4c-2.2-0.2-4.3-0.3-6.5-0.3h-0.4
		c-1,0-2,0.1-2.9,0.3L-441.3,266z M-443.5,295.1c-0.7-0.7-1-1.6-1-2.5c0-1.1,0.5-2,1.3-2.7c2.6-2.2,6-3.4,9.4-3.4h0.4
		c11.7,0,23.2,2.3,34,7l2,0.9l-8,2.4c-8.1,2.5-16.6,3.7-25.1,3.7C-435.4,300.5-440,298.6-443.5,295.1z M-407.1,301.5
		c-1.2,0-2.4-0.5-3.3-1.3c1.9-0.4,3.7-0.9,5.6-1.5l2.5-0.8l-0.5,0.9C-403.6,300.5-405.3,301.5-407.1,301.5z"/>
	<path class="st0" d="M-408.5,280.5c0-4.4,3.6-8,8-8v-2c-5.5,0-10,4.5-10,10H-408.5z"/>
	<rect x="-437.5" y="267" transform="matrix(0.9701 -0.2425 0.2425 0.9701 -77.9926 -97.595)" class="st0" width="4.1" height="2"/>
	
		<rect x="-436.5" y="271" transform="matrix(0.9701 -0.2425 0.2425 0.9701 -78.9328 -97.2332)" class="st0" width="4.1" height="2"/>
	<rect x="-435.5" y="275" transform="matrix(0.9701 -0.2425 0.2425 0.9701 -79.873 -96.8714)" class="st0" width="4.1" height="2"/>
</g>
</svg>
