<?xml version="1.0" encoding="utf-8"?>
<!-- Generator: Adobe Illustrator 19.0.0, SVG Export Plug-In . SVG Version: 6.00 Build 0)  -->
<svg version="1.1" id="Layer_1" xmlns="http://www.w3.org/2000/svg" xmlns:xlink="http://www.w3.org/1999/xlink" x="0px" y="0px"
	 viewBox="-447 241.5 64 62.3" style="enable-background:new -447 241.5 64 62.3;" xml:space="preserve">
<style type="text/css">
	.st0{fill:#CF3721;}
</style>
<g>
	<path class="st0" d="M-385.1,284c0-0.1,0-0.3-0.1-0.4c0-0.1-0.1-0.2-0.1-0.3c0-0.1-0.1-0.3-0.1-0.4c0-0.1-0.1-0.2-0.1-0.3
		c-0.1-0.2-0.2-0.3-0.2-0.5c-0.2-0.3-0.4-0.6-0.6-0.8c0,0-0.1-0.1-0.1-0.1c-0.1-0.1-0.2-0.2-0.3-0.3c-0.1-0.1-0.1-0.1-0.2-0.2
		c-0.1-0.1-0.2-0.2-0.4-0.3c-0.1-0.1-0.1-0.1-0.2-0.2c-0.3-0.2-0.6-0.4-0.9-0.5c-0.1-0.1-0.3-0.1-0.4-0.2c0,0-0.1,0-0.1,0
		c-0.3-0.1-0.6-0.2-1-0.3l-11.1-2.1V274c2.5-1.9,4-4.8,4-8c2.2,0,4-1.8,4-4c0-1.6-1-3.1-2.5-3.7c1.5-0.9,2.5-2.5,2.5-4.3
		c0-0.6-0.4-1-1-1h-3v-0.6c0-0.9,0-1.7-0.1-2.5c-0.1-0.8-0.2-1.6-0.3-2.4c-0.2-1.2-0.8-2.4-1.8-3.2c-2.2-1.9-5.6-1.6-7.5,0.6
		c-0.1,0.1-0.2,0.2-0.2,0.3c-1.7-2.4-5.1-2.9-7.5-1.2c-0.1,0.1-0.2,0.2-0.3,0.2c-1,0.8-1.6,2-1.8,3.2c-0.1,0.8-0.2,1.6-0.3,2.4
		c-0.1,0.8-0.1,1.6-0.1,2.5v0.6h-3c-0.6,0-1,0.4-1,1c0,1.8,1,3.4,2.5,4.3c-2,0.8-3,3.2-2.2,5.2c0.6,1.5,2.1,2.5,3.7,2.5
		c0,3.1,1.5,6.1,4,8l0,3.2l-9.2,1.7c-0.1-1,0-2,0.1-2.9c0.1-0.4,0.1-0.9,0.1-1.3c-0.2-3.3-2.7-6-6-6.5v-13l0.9-2.8
		c0-0.1,0.1-0.2,0.1-0.3v-1h2v-2h-2v-2h2v-2h-2v-1c0-0.6-0.4-1-1-1h-7c-0.6,0-1,0.4-1,1v1h-2v2h2v2h-2v2h2v1c0,0.1,0,0.2,0.1,0.3
		l0.9,2.8v13c-3.3,0.5-5.8,3.2-6,6.5c0,0.4,0,0.9,0.1,1.3c0.5,2.7-0.1,5.5-1.6,7.8c-1.6,2.2-2.5,4.9-2.4,7.6
		c0.3,6.6,5.8,11.7,12.4,11.6h2.3c1.2,0,2.3-0.2,3.4-0.5c0.6,0.3,1.2,0.5,1.9,0.5h6.1l11.9-1.2l12,1.2h6c2.2,0,4-1.8,4-4v-13.8
		c0-0.3,0-0.7-0.1-1C-385.1,284.1-385.1,284-385.1,284z M-395,262c0,1.1-0.9,2-2,2v-4C-395.9,260-395,260.9-395,262z M-414.6,247.8
		c0.3-1.6,1.7-2.8,3.3-2.8c1.1,0,2.2,0.6,2.8,1.5c0.6,0.8,1.7,1.1,2.6,0.5c0.2-0.1,0.4-0.3,0.5-0.5c0.6-0.9,1.7-1.5,2.8-1.5
		c1.6,0,3,1.2,3.3,2.8c0.1,0.4,0.1,0.8,0.2,1.2h-15.5C-414.7,248.6-414.7,248.2-414.6,247.8z M-415,252.4L-415,252.4
		c0-0.5,0-0.9,0-1.3c0,0,0,0,0-0.1h15.9c0,0,0,0,0,0.1c0,0.4,0,0.9,0,1.3v0.6h-16V252.4z M-417,264c-1.1,0-2-0.9-2-2s0.9-2,2-2V264z
		 M-418.8,255h23.7c-0.4,1.2-1.6,2-2.8,2h-18C-417.3,257-418.4,256.2-418.8,255z M-415,266v-7l0,0h15.9l0,0v7c0,2.7-1.3,5.2-3.6,6.6
		c-2.7,1.7-6.1,1.8-8.8,0.1l-0.1-0.1C-413.7,271.2-415,268.7-415,266z M-412.6,279.1c0.9-0.2,1.6-1,1.6-2v-2c2.5,1.1,5.5,1.1,8,0v2
		c0,1,0.7,1.8,1.6,2l1.2,0.2l-0.4,1.6c-0.9,3.6-4.4,5.7-8,4.9c-2.4-0.6-4.3-2.5-4.9-4.9l-0.4-1.6L-412.6,279.1z M-434,245h5v6.8
		l-0.7,2.2h-3.6l-0.7-2.2V245z M-430,256v20.2c-1-0.3-2-0.3-3,0V256H-430z M-430.4,301h-2.3c-5.5,0.1-10-4.2-10.4-9.7
		c-0.1-2.3,0.6-4.5,2-6.3c1.9-2.7,2.6-6,2-9.3c0-0.3-0.1-0.6,0-0.9c0.2-2.3,1.8-4.1,4-4.6v7.1c-2.3,1.9-2.7,5.4-0.8,7.7
		c1.6,2,4.5,2.6,6.8,1.4v4.6h-7c-0.6,0-1,0.4-1,1v4c0,0.6,0.4,1,1,1h7v2c0,0.6,0.2,1.3,0.4,1.8C-429.1,300.9-429.7,301-430.4,301z
		 M-429,293v2h-6v-2H-429z M-428,281.9c-0.1,0.1-0.1,0.2-0.2,0.3v0c-0.1,0.1-0.2,0.3-0.2,0.5c0,0.1-0.1,0.2-0.1,0.3
		c-0.1,0.1-0.1,0.2-0.1,0.4c0,0.1-0.1,0.2-0.1,0.3c0,0,0,0.1,0,0.1l0,0.1c-0.7,0.8-1.6,1.3-2.7,1.3c-1.9,0-3.5-1.6-3.5-3.5
		c0-1.2,0.6-2.3,1.6-2.9c1.2-0.8,2.7-0.8,3.9,0c1,0.6,1.6,1.7,1.6,2.9C-428,281.6-428,281.8-428,281.9z M-428,277.3v-7.1
		c2.2,0.5,3.8,2.4,4,4.6c0,0.3,0,0.6,0,0.9c-0.2,1.2-0.2,2.4-0.1,3.6c-0.2,0-0.3,0.1-0.5,0.1c-0.2,0-0.4,0.1-0.5,0.2l-0.4,0.2
		c-0.1,0-0.2,0.1-0.3,0.2c-0.1,0.1-0.2,0.1-0.3,0.2C-426.5,279-427.1,278-428,277.3z M-419,301h-6c-0.4,0-0.8-0.1-1.2-0.4
		c-0.5-0.4-0.8-1-0.8-1.6h2.7l2.7,1.8c0.2,0.1,0.4,0.2,0.6,0.2H-419L-419,301z M-387,298v1c0,1.1-0.9,2-2,2l-5.9,0l-20.1-2h-5.7
		l-2.7-1.8c-0.2-0.1-0.4-0.2-0.6-0.2h-3v-7h3.7l5.7,3.8c0.2,0.1,0.4,0.2,0.6,0.2h30V298z M-387,292h-6.7l3-2h3.7V292z M-387,288h-4
		c-0.2,0-0.4,0.1-0.6,0.2l-5.7,3.8h-19.4l-5.7-3.8c-0.2-0.1-0.4-0.2-0.6-0.2h-4v-2.8c0-0.2,0-0.5,0.1-0.7l0,0c0-0.2,0.1-0.4,0.2-0.6
		c0-0.1,0-0.1,0.1-0.2c0.1-0.4,0.3-0.7,0.6-1c0.1-0.1,0.1-0.1,0.2-0.2c0.1-0.1,0.2-0.2,0.3-0.3c0.1-0.1,0.1-0.1,0.2-0.2
		c0.1-0.1,0.3-0.2,0.4-0.3c0,0,0.1-0.1,0.1-0.1c0.4-0.2,0.8-0.4,1.2-0.5l7.9-1.5l0.4,1.6c1.1,4.6,5.8,7.5,10.4,6.4
		c3.1-0.8,5.6-3.2,6.4-6.4l0.4-1.6l7.9,1.5c0.2,0,0.5,0.1,0.7,0.2l0,0c0.2,0.1,0.3,0.2,0.5,0.2c0.1,0,0.1,0.1,0.2,0.1
		c0.3,0.2,0.7,0.5,0.9,0.8c0,0,0,0,0,0.1c0.1,0.2,0.3,0.3,0.4,0.5l0,0c0.1,0.2,0.2,0.3,0.2,0.5c0,0.1,0.1,0.1,0.1,0.2
		c0.1,0.2,0.1,0.3,0.1,0.5c0,0,0,0.1,0,0.1c0,0.2,0.1,0.4,0.1,0.7L-387,288z"/>
	<path class="st0" d="M-411.5,263c0.8,0,1.5-0.7,1.5-1.5s-0.7-1.5-1.5-1.5s-1.5,0.7-1.5,1.5S-412.3,263-411.5,263z"/>
	<path class="st0" d="M-402.5,263c0.8,0,1.5-0.7,1.5-1.5s-0.7-1.5-1.5-1.5s-1.5,0.7-1.5,1.5S-403.3,263-402.5,263z"/>
	<path class="st0" d="M-410,269h1.9c1.6,0,3.2-0.4,4.6-1.1l-1-1.7c-1.1,0.6-2.4,0.9-3.6,0.9h-1.9V269z"/>
</g>
</svg>
