<?xml version="1.0" encoding="utf-8"?>
<!-- Generator: Adobe Illustrator 19.0.0, SVG Export Plug-In . SVG Version: 6.00 Build 0)  -->
<svg version="1.1" id="Layer_1" xmlns="http://www.w3.org/2000/svg" xmlns:xlink="http://www.w3.org/1999/xlink" x="0px" y="0px"
	 viewBox="0 247.8 66 60.2" style="enable-background:new 0 247.8 66 60.2;" xml:space="preserve">
<style type="text/css">
	.st0{fill:#CF3721;stroke:#CF3721;stroke-width:0.25;stroke-miterlimit:10;}
</style>
<g>
	<g>
		<path class="st0" d="M57.1,302.1v-21c0,0,0,0,0,0c0-3.2-2.6-5.8-5.8-5.8h-2.3c-0.3-2.9-2.8-5.2-5.8-5.2c0,0,0,0,0,0h-1
			c0,0,0,0,0,0h-1.6c-0.6-5.1-5-9-10.2-9c-5.2,0-9.6,3.9-10.2,9h-5.6c0,0,0,0,0,0c-3.2,0-5.8,2.6-5.8,5.8c0,0,0,0,0,0v26.3
			c0,0,0,0,0,0c0,3.2,2.6,5.8,5.8,5.8h36.7c1.5,0,3-0.6,4.1-1.7c1.1-1.1,1.7-2.5,1.8-4c0,0,0,0,0,0c0,0,0,0,0,0v0
			C57.1,302.2,57.1,302.2,57.1,302.1C57.1,302.1,57.1,302.1,57.1,302.1z M40.9,271.4C40.9,271.3,40.8,271.3,40.9,271.4l1.5-0.1
			c0,0,0,0,0,0h1c0,0,0,0,0,0c2.3,0,4.3,1.7,4.6,4h-7.8C40.6,274,40.9,272.7,40.9,271.4z M21.4,270.7c0.3-4.7,4.3-8.5,9.1-8.5
			c4.8,0,8.8,3.7,9.1,8.5c0,0.2,0,0.4,0,0.7c0,1.4-0.3,2.7-0.9,3.9h-5.2c0.3-0.5,0.5-1,0.5-1.6c0-1.6-1.3-2.9-2.9-2.9h-1.3
			c-0.9,0-1.7-0.8-1.7-1.7c0-0.9,0.8-1.7,1.7-1.7h3.6c0.3,0,0.6-0.3,0.6-0.6c0-0.3-0.3-0.6-0.6-0.6h-2.3v-2c0-0.3-0.3-0.6-0.6-0.6
			s-0.6,0.3-0.6,0.6v2h-0.1c-1.6,0-2.9,1.3-2.9,2.9s1.3,2.9,2.9,2.9h1.3c0.9,0,1.7,0.8,1.7,1.7c0,0.8-0.5,1.4-1.2,1.6h-9.4
			c-0.6-1.2-0.9-2.6-0.9-3.9C21.4,271.1,21.4,270.9,21.4,270.7z M14.7,271.3C14.7,271.3,14.7,271.3,14.7,271.3l5.5,0
			c0,0,0,0.1,0,0.1c0,1.3,0.3,2.7,0.8,3.9H10.1C10.4,273,12.3,271.3,14.7,271.3z M55.9,296.3H42.3c-2.5,0-4.6-2.1-4.6-4.6
			c0-2.5,2.1-4.6,4.6-4.6h13.6V296.3z M55.9,281.1v4.8H42.3c-3.2,0-5.8,2.6-5.8,5.8c0,3.2,2.6,5.8,5.8,5.8h13.6v4.8
			c-0.1,2.5-2.1,4.5-4.6,4.5H14.7c-2.5,0-4.6-2.1-4.6-4.6c0,0,0,0,0,0v-25.6h21.7c0,0,0,0,0,0c0,0,0,0,0,0h7.4c0,0,0,0,0,0
			c0,0,0,0,0,0h9.4c0,0,0,0,0,0c0,0,0,0,0,0h2.8C53.9,276.5,55.9,278.5,55.9,281.1C55.9,281.1,55.9,281.1,55.9,281.1z"/>
		<path class="st0" d="M51.3,308.1H14.7c-3.3,0-5.9-2.7-5.9-5.9l0-26.3c0-3.3,2.7-5.9,5.9-5.9l5.5,0c0.7-5.2,5.1-9,10.4-9
			c5.2,0,9.7,3.9,10.4,9l2.4,0h0c3,0,5.5,2.2,5.9,5.2h2.1c3.3,0,5.9,2.7,5.9,5.9v21.2c0,1.6-0.7,3-1.8,4.1
			C54.4,307.5,52.9,308.1,51.3,308.1z M14.7,270.2c-3.1,0-5.7,2.5-5.7,5.7l0,26.3c0,3.1,2.6,5.7,5.7,5.7h36.7c1.5,0,2.9-0.6,4-1.6
			c1.1-1,1.7-2.4,1.7-3.9l0-0.1l0,0v-21c0-3.1-2.6-5.7-5.7-5.7H49l0-0.1c-0.3-2.9-2.7-5.1-5.7-5.1l-2.6,0l0-0.1
			c-0.6-5.1-5-8.9-10.1-8.9c-5.1,0-9.5,3.8-10.1,8.9l0,0.1H14.7C14.7,270.2,14.7,270.2,14.7,270.2z M51.3,306.9H14.7
			c-2.6,0-4.7-2.1-4.7-4.7l0-25.8h41.4c2.6,0,4.7,2.1,4.7,4.7v4.9H42.3c-3.1,0-5.7,2.6-5.7,5.7s2.6,5.7,5.7,5.7h13.7v4.9
			C56,304.8,53.9,306.9,51.3,306.9z M10.2,276.6v25.5c0,2.5,2,4.5,4.5,4.5h36.7c2.4,0,4.4-2,4.5-4.4v-4.6H42.3
			c-3.3,0-5.9-2.7-5.9-5.9s2.7-5.9,5.9-5.9h13.5v-4.7c0-2.5-2-4.5-4.5-4.5H10.2z M56.1,296.4H42.3c-2.6,0-4.7-2.1-4.7-4.7
			s2.1-4.7,4.7-4.7h13.7V296.4z M42.3,287.2c-2.5,0-4.5,2-4.5,4.5s2,4.5,4.5,4.5h13.5v-9H42.3z M48,275.4h-8.1l0.1-0.2
			c0.5-1.2,0.8-2.5,0.8-3.9l0-0.2l2.6,0c2.4,0,4.4,1.8,4.7,4.1L48,275.4z M40.3,275.1h7.4c-0.4-2.1-2.2-3.7-4.4-3.7l-2.3,0
			C41,272.7,40.7,274,40.3,275.1z M38.8,275.4h-5.5l0.1-0.2c0.3-0.5,0.5-1,0.5-1.5c0-1.5-1.2-2.8-2.8-2.8h-1.3c-1,0-1.8-0.8-1.8-1.8
			s0.8-1.8,1.8-1.8h3.6c0.3,0,0.5-0.2,0.5-0.5c0-0.3-0.2-0.5-0.5-0.5H31v-2.1c0-0.3-0.2-0.5-0.5-0.5s-0.5,0.2-0.5,0.5v2.1h-0.2
			c-1.5,0-2.8,1.2-2.8,2.8s1.2,2.8,2.8,2.8h1.3c1,0,1.8,0.8,1.8,1.8c0,0.8-0.5,1.5-1.3,1.7l0,0h-9.4l0-0.1c-0.6-1.2-0.9-2.6-0.9-4
			c0-0.2,0-0.4,0-0.7l0,0c0.3-4.8,4.4-8.6,9.2-8.6c4.8,0,8.9,3.8,9.2,8.6c0,0.2,0,0.5,0,0.7C39.8,272.7,39.5,274.1,38.8,275.4
			L38.8,275.4z M33.8,275.1h4.9c0.5-1.2,0.8-2.5,0.8-3.8c0-0.2,0-0.4,0-0.6c-0.3-4.7-4.3-8.3-9-8.3c-4.7,0-8.6,3.7-9,8.3
			c0,0.2,0,0.4,0,0.6c0,1.3,0.3,2.6,0.8,3.8h9.3c0.7-0.2,1.1-0.8,1.1-1.5c0-0.9-0.7-1.6-1.6-1.6h-1.3c-1.7,0-3-1.4-3-3
			c0-1.6,1.3-3,2.9-3v-1.8c0-0.4,0.3-0.7,0.7-0.7s0.7,0.3,0.7,0.7v1.8h2.2c0.4,0,0.7,0.3,0.7,0.7c0,0.4-0.3,0.7-0.7,0.7h-3.6
			c-0.9,0-1.6,0.7-1.6,1.6c0,0.9,0.7,1.6,1.6,1.6h1.3c1.7,0,3,1.4,3,3C34.2,274.2,34.1,274.7,33.8,275.1z M21.1,275.4H10l0-0.1
			c0.3-2.3,2.3-4.1,4.7-4.1l5.7,0l0,0.2c0,1.3,0.3,2.6,0.8,3.9L21.1,275.4z M10.3,275.1h10.5c-0.5-1.2-0.7-2.5-0.7-3.7h-5.4l0-0.1
			l0,0.1C12.5,271.4,10.6,273,10.3,275.1z"/>
	</g>
	<g>
		<path class="st0" d="M39.1,291.7c0,1.8,1.4,3.2,3.2,3.2s3.2-1.4,3.2-3.2c0-1.8-1.4-3.2-3.2-3.2S39.1,289.9,39.1,291.7z
			 M44.3,291.7c0,1.1-0.9,2-2,2s-2-0.9-2-2s0.9-2,2-2S44.3,290.6,44.3,291.7z"/>
		<path class="st0" d="M42.3,295c-1.8,0-3.3-1.5-3.3-3.3s1.5-3.3,3.3-3.3s3.3,1.5,3.3,3.3S44.2,295,42.3,295z M42.3,288.6
			c-1.7,0-3.1,1.4-3.1,3.1s1.4,3.1,3.1,3.1s3.1-1.4,3.1-3.1S44,288.6,42.3,288.6z M42.3,293.8c-1.2,0-2.1-1-2.1-2.1
			c0-1.2,1-2.1,2.1-2.1c1.2,0,2.1,1,2.1,2.1C44.5,292.8,43.5,293.8,42.3,293.8z M42.3,289.8c-1,0-1.9,0.8-1.9,1.9
			c0,1,0.8,1.9,1.9,1.9c1,0,1.9-0.8,1.9-1.9C44.2,290.6,43.4,289.8,42.3,289.8z"/>
	</g>
	<g>
		<path class="st0" d="M30.4,259.6c0.3,0,0.6-0.3,0.6-0.6v-9.7c0-0.3-0.3-0.6-0.6-0.6s-0.6,0.3-0.6,0.6v9.7
			C29.8,259.4,30.1,259.6,30.4,259.6z"/>
		<path class="st0" d="M30.4,259.8c-0.4,0-0.7-0.3-0.7-0.7v-9.7c0-0.4,0.3-0.7,0.7-0.7s0.7,0.3,0.7,0.7v9.7
			C31.2,259.4,30.8,259.8,30.4,259.8z M30.4,248.8c-0.3,0-0.5,0.2-0.5,0.5v9.7c0,0.3,0.2,0.5,0.5,0.5s0.5-0.2,0.5-0.5v-9.7
			C30.9,249,30.7,248.8,30.4,248.8z"/>
	</g>
	<g>
		<path class="st0" d="M26.7,260.7c0.3,0,0.6-0.3,0.6-0.6v-7.4c0-0.3-0.3-0.6-0.6-0.6s-0.6,0.3-0.6,0.6v7.4
			C26.1,260.4,26.4,260.7,26.7,260.7z"/>
		<path class="st0" d="M26.7,260.8c-0.4,0-0.7-0.3-0.7-0.7v-7.4c0-0.4,0.3-0.7,0.7-0.7s0.7,0.3,0.7,0.7v7.4
			C27.4,260.5,27.1,260.8,26.7,260.8z M26.7,252.2c-0.3,0-0.5,0.2-0.5,0.5v7.4c0,0.3,0.2,0.5,0.5,0.5s0.5-0.2,0.5-0.5v-7.4
			C27.2,252.4,27,252.2,26.7,252.2z"/>
	</g>
	<g>
		<path class="st0" d="M23,262.8c0.3,0,0.6-0.3,0.6-0.6v-6.7c0-0.3-0.3-0.6-0.6-0.6s-0.6,0.3-0.6,0.6v6.7
			C22.4,262.5,22.6,262.8,23,262.8z"/>
		<path class="st0" d="M23,262.9c-0.4,0-0.7-0.3-0.7-0.7v-6.7c0-0.4,0.3-0.7,0.7-0.7s0.7,0.3,0.7,0.7v6.7
			C23.7,262.5,23.4,262.9,23,262.9z M23,255c-0.3,0-0.5,0.2-0.5,0.5v6.7c0,0.3,0.2,0.5,0.5,0.5s0.5-0.2,0.5-0.5v-6.7
			C23.5,255.2,23.2,255,23,255z"/>
	</g>
	<g>
		<path class="st0" d="M37.9,262.8c0.3,0,0.6-0.3,0.6-0.6v-6.7c0-0.3-0.3-0.6-0.6-0.6c-0.3,0-0.6,0.3-0.6,0.6v6.7
			C37.3,262.5,37.6,262.8,37.9,262.8z"/>
		<path class="st0" d="M37.9,262.9c-0.4,0-0.7-0.3-0.7-0.7v-6.7c0-0.4,0.3-0.7,0.7-0.7s0.7,0.3,0.7,0.7v6.7
			C38.6,262.5,38.3,262.9,37.9,262.9z M37.9,255c-0.3,0-0.5,0.2-0.5,0.5v6.7c0,0.3,0.2,0.5,0.5,0.5s0.5-0.2,0.5-0.5v-6.7
			C38.4,255.2,38.2,255,37.9,255z"/>
	</g>
	<g>
		<path class="st0" d="M34.2,260.7c0.3,0,0.6-0.3,0.6-0.6v-7.4c0-0.3-0.3-0.6-0.6-0.6c-0.3,0-0.6,0.3-0.6,0.6v7.4
			C33.6,260.4,33.8,260.7,34.2,260.7z"/>
		<path class="st0" d="M34.2,260.8c-0.4,0-0.7-0.3-0.7-0.7v-7.4c0-0.4,0.3-0.7,0.7-0.7c0.4,0,0.7,0.3,0.7,0.7v7.4
			C34.9,260.5,34.6,260.8,34.2,260.8z M34.2,252.2c-0.3,0-0.5,0.2-0.5,0.5v7.4c0,0.3,0.2,0.5,0.5,0.5c0.3,0,0.5-0.2,0.5-0.5v-7.4
			C34.6,252.4,34.4,252.2,34.2,252.2z"/>
	</g>
	<g>
		<path class="st0" d="M50.3,279.7H15.7c-0.3,0-0.6,0.3-0.6,0.6c0,0.3,0.3,0.6,0.6,0.6h34.6c0.3,0,0.6-0.3,0.6-0.6
			C50.9,279.9,50.6,279.7,50.3,279.7z"/>
		<path class="st0" d="M50.3,281H15.7c-0.4,0-0.7-0.3-0.7-0.7c0-0.4,0.3-0.7,0.7-0.7h34.6c0.4,0,0.7,0.3,0.7,0.7
			C51,280.7,50.7,281,50.3,281z M15.7,279.8c-0.3,0-0.5,0.2-0.5,0.5s0.2,0.5,0.5,0.5h34.6c0.3,0,0.5-0.2,0.5-0.5s-0.2-0.5-0.5-0.5
			H15.7z"/>
	</g>
	<g>
		<path class="st0" d="M15.1,303.1c0,0.3,0.3,0.6,0.6,0.6h34.6c0.3,0,0.6-0.3,0.6-0.6s-0.3-0.6-0.6-0.6H15.7
			C15.4,302.5,15.1,302.7,15.1,303.1z"/>
		<path class="st0" d="M50.3,303.8H15.7c-0.4,0-0.7-0.3-0.7-0.7c0-0.4,0.3-0.7,0.7-0.7h34.6c0.4,0,0.7,0.3,0.7,0.7
			C51,303.5,50.7,303.8,50.3,303.8z M15.7,302.6c-0.3,0-0.5,0.2-0.5,0.5c0,0.3,0.2,0.5,0.5,0.5h34.6c0.3,0,0.5-0.2,0.5-0.5
			c0-0.3-0.2-0.5-0.5-0.5H15.7z"/>
	</g>
</g>
</svg>
