<?xml version="1.0" encoding="utf-8"?>
<!-- Generator: Adobe Illustrator 19.0.0, SVG Export Plug-In . SVG Version: 6.00 Build 0)  -->
<svg version="1.1" id="Layer_1" xmlns="http://www.w3.org/2000/svg" xmlns:xlink="http://www.w3.org/1999/xlink" x="0px" y="0px"
	 viewBox="-445 242.3 64 60.8" style="enable-background:new -445 242.3 64 60.8;" xml:space="preserve">
<style type="text/css">
	.st0{fill:#CF3721;stroke:#CF3721;stroke-width:0.5;stroke-miterlimit:10;}
</style>
<g>
	<path class="st0" d="M-388.8,278.5c-1.1-9.6-4.4-12.8-4.9-13.7h0c-7.2-11.4-3.2-20.2-3.1-20.5l-1.8-0.9c-0.2,0.4-4.5,9.8,2.8,21.9
		c-5.2,1.6-10.7,2.5-16.3,2.5c-5.7,0-11.6-0.8-18-2.5c7.3-12.1,2.9-21.4,2.8-21.8l-1.8,0.9c0,0.1,4.3,9.3-3.4,21l0,0l0,0
		c-0.3,0.5-0.6,1-1,1.5c-0.1,0.2-2.6,4-3.6,11.7l-0.1,1.1l0,0c-0.6,6.6,0.1,14,2.2,21.9l1.9-0.5c-2-7.8-2.7-15-2.1-21.4
		c4.2,0.2,9.1,2,13.6,4.8c4.5,2.8,7.3,5.9,7.6,7.5v9.3h2V292c0.9-3.8,11.7-11.8,21.2-12.3c0.6,6.4-0.1,13.6-2.1,21.4l1.9,0.5
		c2.1-7.9,2.8-15.3,2.2-21.9l0,0L-388.8,278.5z M-412.9,289.5c-1.4-2.1-4.1-4.6-7.6-6.7c-4.8-3-10-4.8-14.4-5.1
		c1-6.5,3.1-9.7,3.1-9.8c0.2-0.3,0.5-0.6,0.7-0.9c6.8,1.9,13,2.8,19.1,2.8c6,0,11.8-0.9,17.4-2.7c0.5,0.7,2.6,3.2,3.7,10.7
		C-399.8,278.3-409.7,284.7-412.9,289.5z"/>
	<path class="st0" d="M-412,259.5c0-0.6-0.5-1.1-1.1-1.1s-1.1,0.5-1.1,1.1c0,0.6,0.5,1.1,1.1,1.1S-412,260.1-412,259.5z M-414,259.5
		c0-0.5,0.4-0.9,0.9-0.9s0.9,0.4,0.9,0.9s-0.4,0.9-0.9,0.9S-414,260-414,259.5z"/>
	<path class="st0" d="M-382,249.6h-6.4V248c0-0.4-0.3-0.8-0.6-0.9c-0.4-0.1-0.8,0-1.1,0.3l-5,5.7c-0.3,0.4-0.3,0.9,0,1.3
		c5.1,5.8,4.9,6.2,5.7,6.2c1.5,0,0.9-2,1-2.7c4.9-0.3,7.4,0.7,7.4-1v-6.2C-381,250-381.4,249.6-382,249.6z M-383,255.8h-6.4
		c-0.6,0-1,0.4-1,1v0l-2.7-3.1l2.7-3c0,0.5,0.5,0.9,1,0.9h6.4V255.8z"/>
	<path class="st0" d="M-437.6,257.8c0.1,1.1-0.4,2.3,0.7,2.7c0.4,0.1,0.8,0,1.1-0.3c4-5.2,6-6,5-7.1c-4.7-5.1-4.9-6.4-6.1-6
		c-1,0.4-0.5,1.6-0.6,2.5h-6.4c-0.6,0-1,0.4-1,1v6.2c0,0.6,0.4,1,1,1C-444,257.8-437.6,257.8-437.6,257.8z M-443,251.6
		c5.1-0.3,7.3,0.7,7.4-0.9l2.7,3l-2.7,3.1c0-0.1-0.1-1-1-1h-6.4V251.6z"/>
</g>
</svg>
